<?xml version="1.0" encoding="UTF-8" standalone="no"?>
<!DOCTYPE svg PUBLIC "-//W3C//DTD SVG 20010904//EN"
              "http://www.w3.org/TR/2001/REC-SVG-20010904/DTD/svg10.dtd">

<svg xmlns="http://www.w3.org/2000/svg"
     width="6.11in" height="2.41in"
     viewBox="0 0 1833 723">
  <path id="bg"
        fill="white" stroke="black" stroke-width="1"
        d="M 133.00,379.00
           C 121.37,370.68 114.03,359.55 107.75,347.00
             91.69,314.88 92.60,288.76 93.00,254.00
             93.00,254.00 93.91,244.00 93.91,244.00
             94.85,230.40 96.72,217.39 99.40,204.00
             99.40,204.00 106.72,173.00 106.72,173.00
             116.27,140.94 135.01,105.34 156.73,80.00
             176.87,56.51 211.96,33.05 244.00,33.00
             262.16,32.97 279.43,31.42 297.00,36.72
             342.27,50.37 370.89,93.68 377.00,139.00
             395.36,132.99 399.44,134.00 418.00,134.00
             429.48,134.00 433.63,133.17 445.00,136.43
             451.29,138.23 457.51,141.15 463.00,144.70
             465.59,146.37 470.07,150.47 473.00,150.33
             474.85,150.25 480.04,147.23 482.00,146.25
             487.55,143.47 493.09,141.24 499.00,139.34
             513.36,134.74 526.21,134.98 541.00,135.00
             551.47,135.02 560.69,137.48 570.00,142.26
             573.32,143.96 582.24,150.34 585.00,150.23
             587.27,150.14 595.15,144.73 598.00,143.26
             608.32,137.92 615.18,135.02 627.00,135.00
             637.67,134.98 649.65,134.14 660.00,136.42
             660.00,136.42 670.00,139.09 670.00,139.09
             679.30,142.43 676.73,143.98 688.00,144.00
             688.00,144.00 724.00,144.00 724.00,144.00
             724.00,144.00 736.00,145.02 736.00,145.02
             736.00,145.02 746.00,145.02 746.00,145.02
             746.00,145.02 784.00,145.02 784.00,145.02
             796.86,144.98 799.38,139.61 812.00,136.38
             820.52,134.20 834.82,134.90 844.00,135.00
             850.46,135.08 858.10,136.67 864.00,139.31
             864.00,139.31 877.00,145.90 877.00,145.90
             881.19,147.04 884.20,142.62 887.00,140.18
             891.52,136.24 901.29,131.14 907.00,129.09
             917.08,125.47 922.70,126.00 933.00,126.15
             933.00,126.15 952.00,126.15 952.00,126.15
             961.37,127.64 971.14,132.89 979.00,138.00
             979.00,129.37 979.46,124.00 983.26,116.00
             992.32,96.96 1011.17,81.03 1033.00,81.00
             1033.00,81.00 1053.00,81.00 1053.00,81.00
             1062.03,81.04 1066.05,82.72 1074.00,86.76
             1092.81,96.30 1105.98,114.59 1106.00,136.00
             1110.05,135.27 1110.79,135.05 1115.00,135.00
             1115.00,135.00 1128.00,135.00 1128.00,135.00
             1130.02,134.99 1132.85,135.13 1134.58,133.98
             1136.95,132.41 1137.67,128.57 1138.42,126.00
             1138.42,126.00 1143.75,109.00 1143.75,109.00
             1148.99,93.22 1160.62,81.21 1178.00,81.00
             1178.00,81.00 1231.00,81.00 1231.00,81.00
             1251.34,81.03 1266.90,95.32 1267.00,116.00
             1267.00,116.00 1267.00,128.00 1267.00,128.00
             1266.95,132.21 1266.73,132.95 1266.00,137.00
             1269.75,136.09 1279.10,135.05 1283.00,135.00
             1283.00,135.00 1298.00,135.00 1298.00,135.00
             1313.80,135.02 1330.16,141.78 1342.00,152.18
             1353.13,161.97 1354.19,166.03 1361.00,178.00
             1366.63,167.51 1385.24,152.83 1396.00,147.26
             1396.00,147.26 1416.94,136.79 1416.94,136.79
             1421.11,134.14 1421.62,130.15 1423.79,126.00
             1426.66,120.49 1429.78,116.58 1435.00,113.10
             1446.56,105.40 1458.90,107.19 1472.00,103.28
             1497.82,95.58 1509.48,84.36 1539.00,83.00
             1540.40,69.80 1552.37,58.58 1565.00,55.68
             1569.28,54.70 1576.39,54.99 1581.00,55.00
             1591.37,55.02 1599.32,57.76 1606.96,65.09
             1619.36,77.00 1614.12,80.97 1627.00,81.00
             1632.22,81.01 1639.08,80.60 1644.00,81.93
             1656.55,85.32 1667.10,96.13 1669.77,109.00
             1669.77,109.00 1669.77,135.00 1669.77,135.00
             1669.91,142.35 1667.08,155.07 1664.56,162.00
             1663.07,166.10 1659.37,171.76 1661.01,176.00
             1661.01,176.00 1676.14,200.00 1676.14,200.00
             1676.14,200.00 1687.31,223.00 1687.31,223.00
             1687.31,223.00 1710.67,260.00 1710.67,260.00
             1717.63,270.43 1734.18,291.31 1737.07,302.00
             1738.48,307.19 1738.07,320.06 1738.00,326.00
             1737.90,334.20 1734.41,343.02 1732.14,351.00
             1727.91,365.86 1724.46,382.34 1712.00,392.67
             1705.18,398.32 1701.53,398.12 1695.00,401.54
             1686.61,405.93 1685.31,408.54 1675.00,410.00
             1680.57,423.11 1678.98,441.67 1679.00,456.00
             1679.02,469.25 1684.26,469.68 1687.78,481.00
             1689.65,487.01 1689.01,499.25 1688.79,506.00
             1688.99,510.01 1687.62,518.22 1688.79,521.00
             1689.55,523.76 1693.84,529.38 1695.71,532.00
             1695.71,532.00 1718.69,562.00 1718.69,562.00
             1723.39,570.56 1724.98,575.24 1724.77,585.00
             1724.77,585.00 1724.77,607.00 1724.77,607.00
             1722.37,618.49 1713.16,631.06 1703.00,636.69
             1694.35,641.48 1690.89,642.98 1681.00,643.00
             1681.00,643.00 1500.00,643.00 1500.00,643.00
             1500.00,643.00 1399.00,643.00 1399.00,643.00
             1377.25,642.74 1357.10,622.76 1357.00,601.00
             1356.97,594.72 1357.69,586.95 1356.00,581.00
             1352.28,592.78 1338.60,607.46 1329.00,614.99
             1308.96,630.69 1281.70,641.96 1256.00,642.00
             1256.00,642.00 1228.00,642.00 1228.00,642.00
             1210.99,641.97 1197.02,636.36 1192.00,636.12
             1188.89,635.97 1184.81,637.99 1176.00,637.90
             1176.00,637.90 1155.00,637.90 1155.00,637.90
             1155.00,637.90 1139.00,637.90 1139.00,637.90
             1128.72,636.18 1119.25,628.99 1114.31,620.00
             1111.86,615.54 1111.01,612.93 1110.00,608.00
             1092.92,624.29 1068.38,636.80 1045.00,640.56
             1031.01,642.82 1015.27,642.02 1001.00,642.00
             983.99,641.97 970.02,636.36 965.00,636.12
             961.89,635.97 957.81,637.99 949.00,637.90
             949.00,637.90 928.00,637.90 928.00,637.90
             928.00,637.90 912.00,637.90 912.00,637.90
             901.20,636.11 891.73,628.64 887.00,619.00
             884.36,622.91 882.58,625.59 878.99,628.82
             865.65,640.80 850.46,638.00 834.00,638.00
             834.00,638.00 789.00,638.00 789.00,638.00
             789.00,638.00 659.00,638.00 659.00,638.00
             648.28,637.98 646.49,635.75 643.00,635.75
             639.51,635.75 637.72,637.98 627.00,637.90
             627.00,637.90 514.00,637.90 514.00,637.90
             514.00,637.90 505.00,637.90 505.00,637.90
             505.00,637.90 493.00,637.90 493.00,637.90
             493.00,637.90 380.00,637.90 380.00,637.90
             360.40,637.97 349.43,627.17 344.00,609.00
             322.03,627.87 285.10,641.95 256.00,642.00
             256.00,642.00 228.00,642.00 228.00,642.00
             200.57,641.96 169.35,629.15 148.00,612.33
             144.04,609.21 140.56,605.56 137.00,602.00
             137.00,602.00 125.46,590.00 125.46,590.00
             110.83,572.16 98.50,545.73 94.26,523.00
             91.26,506.92 91.81,490.30 92.00,474.00
             92.40,440.45 109.59,402.62 133.00,379.00 Z" />
  <path id="Imported Path #4"
        fill="black"
        d="M 1576.94,94.43
           C 1577.31,95.69 1577.41,100.06 1577.09,101.73
             1576.14,106.75 1573.51,111.91 1570.43,114.69
             1569.29,115.71 1566.35,117.72 1565.01,118.42
             1562.78,119.56 1554.53,121.92 1553.98,121.57
             1553.89,121.50 1553.07,121.60 1552.20,121.80
             1551.35,122.00 1549.12,122.22 1547.28,122.32
             1543.83,122.47 1536.05,123.46 1533.62,124.03
             1526.29,125.80 1521.54,127.54 1510.02,132.75
             1500.65,136.98 1490.87,140.58 1483.32,142.59
             1474.97,144.82 1465.51,146.24 1460.71,145.99
             1460.71,145.99 1458.33,145.87 1458.33,145.87
             1458.33,145.87 1459.02,146.59 1459.02,146.59
             1459.40,146.99 1460.29,147.63 1460.99,148.03
             1461.68,148.43 1462.45,149.00 1462.73,149.30
             1463.84,150.54 1470.20,153.02 1475.99,154.49
             1479.79,155.43 1481.63,155.75 1484.56,156.00
             1489.30,156.37 1496.80,156.15 1501.42,155.48
             1507.09,154.66 1514.47,153.49 1516.60,153.12
             1517.69,152.92 1522.96,152.23 1528.28,151.61
             1528.28,151.61 1537.96,150.46 1537.96,150.46
             1537.96,150.46 1544.02,150.61 1544.02,150.61
             1547.38,150.71 1552.30,150.98 1554.95,151.26
             1557.64,151.53 1561.11,151.85 1562.68,152.00
             1562.68,152.00 1565.51,152.25 1565.51,152.25
             1565.51,152.25 1568.14,150.84 1568.14,150.84
             1572.37,148.58 1578.82,145.42 1584.16,143.04
             1591.32,139.83 1593.03,138.94 1593.60,138.17
             1594.05,137.55 1594.10,137.12 1594.03,133.87
             1594.00,131.88 1593.80,129.13 1593.60,127.71
             1593.08,124.18 1591.59,118.32 1590.57,115.64
             1588.74,110.89 1583.99,102.03 1582.30,100.21
             1581.93,99.79 1581.08,98.75 1580.46,97.85
             1578.20,94.75 1576.56,93.13 1576.94,94.43 Z
           M 1630.37,120.26
           C 1629.97,121.57 1629.20,123.51 1628.73,124.43
             1626.07,129.62 1620.58,135.93 1614.59,140.70
             1608.63,145.45 1606.22,146.89 1594.10,152.87
             1577.11,161.27 1571.99,164.42 1564.72,170.96
             1560.62,174.63 1554.66,181.34 1551.63,185.69
             1547.85,191.12 1544.87,196.52 1543.16,200.99
             1542.76,202.05 1542.36,202.92 1542.29,202.92
             1542.09,202.92 1541.81,197.43 1541.81,193.73
             1541.81,189.31 1542.68,184.47 1544.25,180.07
             1545.66,176.10 1549.14,169.56 1551.28,166.86
             1551.82,166.16 1552.17,165.49 1552.07,165.39
             1551.95,165.27 1550.04,165.07 1547.78,164.94
             1543.33,164.67 1532.00,164.97 1529.72,165.44
             1529.02,165.57 1527.51,165.79 1526.36,165.91
             1523.43,166.21 1516.58,168.05 1508.75,170.63
             1501.25,173.14 1490.94,178.33 1483.94,183.20
             1477.23,187.82 1469.58,194.88 1464.51,201.06
             1463.59,202.18 1458.83,208.56 1457.83,210.00
             1455.82,212.93 1451.45,220.53 1449.41,224.66
             1446.11,231.36 1444.00,236.83 1442.33,242.91
             1439.80,252.30 1438.71,258.51 1437.86,268.38
             1437.66,270.83 1437.34,273.74 1437.17,274.83
             1436.79,277.24 1436.82,287.00 1437.22,291.10
             1437.36,292.67 1437.59,295.25 1437.74,296.82
             1438.78,307.87 1441.84,323.20 1445.21,334.57
             1447.55,342.37 1451.94,354.34 1454.63,360.21
             1455.30,361.70 1455.87,362.96 1455.87,363.04
             1455.87,363.09 1456.32,364.13 1456.89,365.32
             1457.46,366.52 1458.35,368.48 1458.90,369.72
             1462.00,376.75 1468.12,388.20 1472.54,395.18
             1475.42,399.80 1476.68,401.74 1477.43,402.76
             1477.83,403.30 1479.02,405.04 1480.09,406.61
             1485.83,414.98 1488.91,419.18 1492.01,423.00
             1492.86,424.02 1494.92,426.65 1496.61,428.84
             1501.70,435.44 1509.20,443.22 1514.34,447.22
             1519.48,451.24 1519.81,451.47 1519.51,450.94
             1519.36,450.67 1518.17,449.21 1516.85,447.72
             1515.56,446.20 1513.12,443.29 1511.48,441.26
             1509.85,439.20 1508.03,436.99 1507.46,436.29
             1503.78,431.94 1498.52,424.49 1494.87,418.50
             1494.17,417.36 1492.98,415.47 1492.23,414.31
             1490.52,411.62 1485.28,402.88 1483.14,399.15
             1482.25,397.59 1480.78,395.01 1479.89,393.44
             1478.52,391.01 1471.77,378.12 1471.77,377.92
             1471.77,377.87 1471.00,376.23 1470.05,374.27
             1466.10,366.02 1465.18,364.08 1463.77,360.78
             1458.95,349.65 1452.71,331.62 1450.50,322.40
             1448.74,315.12 1448.07,311.84 1447.05,305.66
             1444.99,292.89 1445.06,293.96 1445.06,280.92
             1445.06,268.57 1445.06,268.45 1446.33,260.92
             1448.59,247.29 1453.44,233.77 1460.44,221.53
             1461.58,219.52 1465.38,213.98 1468.21,210.23
             1470.35,207.37 1477.45,199.97 1480.09,197.83
             1484.58,194.20 1485.93,193.24 1488.28,191.87
             1489.65,191.08 1491.81,189.81 1493.08,189.09
             1495.31,187.80 1497.50,186.73 1496.98,187.20
             1496.85,187.32 1495.61,188.22 1494.25,189.16
             1492.88,190.13 1490.99,191.45 1490.05,192.09
             1481.38,198.18 1472.74,209.93 1465.38,225.65
             1462.92,230.92 1459.94,238.87 1459.35,241.75
             1459.10,243.04 1458.70,244.50 1458.50,245.05
             1457.24,248.35 1455.77,257.15 1455.40,263.58
             1455.05,269.12 1455.05,289.66 1455.37,291.70
             1455.50,292.52 1455.72,294.66 1455.87,296.44
             1456.02,298.21 1456.27,300.52 1456.42,301.54
             1457.33,307.70 1459.99,319.69 1461.33,323.77
             1461.61,324.59 1462.45,327.22 1463.17,329.60
             1464.69,334.52 1467.52,342.82 1468.12,344.06
             1468.31,344.51 1469.16,346.67 1469.98,348.85
             1471.74,353.57 1474.70,360.93 1475.00,361.27
             1475.10,361.40 1475.49,362.24 1475.87,363.14
             1477.13,366.22 1483.76,379.68 1485.30,382.26
             1486.05,383.53 1487.44,386.04 1490.40,391.45
             1491.66,393.79 1494.54,398.61 1495.36,399.78
             1495.94,400.60 1498.57,404.97 1500.16,407.72
             1500.70,408.67 1501.67,410.23 1502.32,411.20
             1502.96,412.15 1504.65,414.68 1506.09,416.79
             1509.08,421.24 1510.67,423.45 1512.35,425.58
             1513.00,426.43 1514.02,427.77 1514.56,428.59
             1515.11,429.41 1515.88,430.40 1516.28,430.80
             1516.65,431.22 1516.97,431.62 1516.97,431.72
             1516.97,431.92 1519.86,435.57 1522.94,439.27
             1523.95,440.51 1525.64,442.57 1526.71,443.87
             1527.78,445.16 1528.97,446.62 1529.37,447.09
             1529.77,447.57 1530.86,448.96 1531.78,450.20
             1532.70,451.42 1534.56,453.88 1535.90,455.66
             1537.24,457.43 1538.34,459.04 1538.34,459.24
             1538.34,459.76 1445.56,459.49 1445.06,458.97
             1444.32,458.22 1439.38,443.10 1436.94,434.18
             1436.27,431.64 1435.55,429.01 1435.35,428.34
             1434.33,424.76 1432.40,416.05 1430.53,406.85
             1429.86,403.50 1428.94,399.03 1428.47,396.92
             1428.00,394.81 1427.35,391.73 1427.06,390.09
             1426.76,388.45 1426.04,384.60 1425.44,381.52
             1424.85,378.44 1423.83,372.85 1423.21,369.10
             1422.58,365.35 1421.96,361.82 1421.84,361.27
             1421.72,360.73 1420.99,356.21 1420.22,351.21
             1419.45,346.22 1418.56,340.53 1418.24,338.55
             1417.34,333.33 1415.46,318.03 1415.03,312.56
             1414.19,301.86 1414.06,297.41 1414.36,288.94
             1414.83,275.80 1415.73,266.41 1417.59,255.71
             1418.64,249.75 1422.36,235.98 1423.95,232.23
             1424.32,231.34 1425.19,229.10 1425.86,227.27
             1428.70,219.44 1434.68,208.59 1440.57,200.56
             1441.46,199.32 1442.83,197.46 1443.60,196.39
             1448.74,189.24 1464.07,175.33 1470.60,171.87
             1471.97,171.15 1472.46,170.38 1471.59,170.38
             1471.34,170.38 1467.49,170.31 1463.02,170.21
             1454.58,170.06 1453.19,170.14 1447.18,171.18
             1432.35,173.69 1417.54,180.64 1405.45,190.73
             1394.19,200.14 1384.73,212.51 1376.68,228.38
             1373.15,235.34 1369.33,244.13 1367.94,248.50
             1367.76,249.05 1367.12,250.66 1366.52,252.08
             1365.93,253.50 1365.48,254.71 1365.55,254.76
             1365.63,254.84 1367.29,254.04 1369.23,252.97
             1371.17,251.91 1374.27,250.24 1376.14,249.30
             1377.97,248.35 1379.61,247.49 1379.74,247.39
             1380.48,246.81 1387.34,243.88 1391.41,242.37
             1397.10,240.28 1399.93,239.26 1400.78,239.02
             1401.57,238.77 1401.27,239.59 1400.28,240.33
             1398.64,241.55 1393.77,246.44 1391.66,249.00
             1388.01,253.45 1383.26,260.33 1380.51,265.20
             1378.82,268.18 1375.84,274.59 1374.97,277.07
             1371.34,287.53 1370.02,296.07 1370.25,307.75
             1370.37,313.73 1370.50,314.87 1371.66,320.66
             1372.36,324.07 1374.47,331.69 1375.36,333.95
             1377.68,339.89 1381.23,347.19 1384.18,352.08
             1385.28,353.85 1386.54,356.03 1387.04,356.93
             1387.04,356.93 1387.91,358.54 1387.91,358.54
             1387.91,358.54 1388.38,356.93 1388.38,356.93
             1390.02,351.21 1390.67,349.30 1393.03,343.14
             1394.69,338.84 1397.55,334.22 1401.92,328.78
             1404.43,325.68 1404.70,325.38 1404.70,325.98
             1404.70,326.50 1403.46,330.10 1403.06,330.72
             1402.59,331.49 1402.04,333.90 1401.60,337.30
             1401.40,339.02 1401.05,341.18 1400.85,342.15
             1400.65,343.09 1400.30,345.45 1400.10,347.36
             1399.91,349.28 1399.63,351.34 1399.48,351.96
             1399.19,353.35 1398.74,358.87 1398.74,361.22
             1398.74,362.22 1398.61,363.46 1398.49,364.01
             1398.37,364.55 1398.09,368.48 1397.87,372.70
             1397.65,376.92 1397.42,380.62 1397.37,380.90
             1397.30,381.17 1397.07,384.30 1396.88,387.85
             1396.33,396.92 1396.38,396.55 1395.39,404.25
             1394.37,412.24 1393.97,414.46 1392.43,420.69
             1390.07,430.05 1387.29,437.98 1385.18,441.21
             1384.46,442.33 1383.88,443.24 1383.91,443.27
             1383.96,443.29 1392.28,441.23 1396.01,440.26
             1397.42,439.89 1404.63,437.08 1406.07,436.36
             1408.95,434.87 1417.62,428.56 1419.60,426.48
             1419.68,426.40 1421.27,424.96 1423.16,423.27
             1425.04,421.58 1427.06,419.57 1427.63,418.80
             1428.22,418.03 1428.89,417.41 1429.12,417.41
             1429.47,417.41 1429.86,418.31 1430.93,421.39
             1431.70,423.57 1432.47,425.86 1432.64,426.48
             1434.95,434.35 1439.35,447.57 1442.33,455.66
             1444.77,462.30 1446.06,466.20 1446.43,468.08
             1446.95,470.82 1447.05,471.04 1447.85,471.59
             1447.85,471.59 1448.64,472.13 1448.64,472.13
             1448.64,472.13 1519.51,472.28 1519.51,472.28
             1558.48,472.38 1601.23,472.43 1614.47,472.38
             1614.47,472.38 1638.56,472.31 1638.56,472.31
             1638.56,472.31 1638.56,469.45 1638.56,469.45
             1638.59,467.89 1638.66,465.92 1638.79,465.10
             1638.89,464.28 1639.08,462.45 1639.21,461.00
             1639.31,459.56 1639.61,457.60 1639.83,456.66
             1640.18,455.22 1640.25,453.55 1640.28,446.72
             1640.30,441.90 1640.20,438.33 1640.05,438.03
             1639.93,437.76 1639.76,436.69 1639.66,435.67
             1638.66,425.04 1632.50,411.50 1621.67,396.20
             1616.33,388.67 1610.49,382.19 1596.44,368.20
             1579.57,351.44 1575.37,346.99 1567.87,337.93
             1564.04,333.31 1558.98,326.57 1556.94,323.39
             1550.63,313.58 1547.60,307.00 1545.54,298.80
             1543.88,292.12 1543.30,279.90 1544.40,274.09
             1545.27,269.52 1545.84,266.86 1546.16,266.14
             1546.33,265.72 1546.56,264.95 1546.66,264.40
             1546.81,263.46 1547.50,261.67 1548.52,259.43
             1548.77,258.89 1549.36,257.55 1549.86,256.48
             1550.56,254.96 1550.83,254.56 1551.05,254.79
             1551.28,255.01 1551.23,255.78 1550.88,257.99
             1550.18,262.29 1550.26,266.46 1551.10,271.03
             1551.80,274.93 1552.62,278.21 1553.02,279.01
             1553.17,279.25 1553.76,280.62 1554.33,282.04
             1556.37,286.93 1559.80,292.35 1564.42,297.93
             1569.76,304.42 1577.98,310.03 1587.77,313.93
             1589.41,314.58 1595.32,315.79 1598.92,316.22
             1602.74,316.64 1608.46,316.39 1612.83,315.57
             1616.16,314.97 1620.85,313.68 1621.42,313.21
             1621.72,312.96 1623.61,312.22 1626.34,311.22
             1628.20,310.53 1628.75,310.55 1627.78,311.25
             1624.50,313.68 1623.06,314.87 1621.18,316.69
             1619.96,317.86 1617.72,319.79 1616.21,321.01
             1614.72,322.20 1613.45,323.32 1613.40,323.49
             1613.38,323.67 1613.97,324.09 1614.77,324.46
             1616.31,325.16 1619.76,327.39 1621.35,328.69
             1622.86,329.93 1626.02,333.16 1627.41,334.87
             1630.24,338.35 1632.33,342.10 1633.72,346.25
             1634.29,347.96 1634.86,349.58 1634.99,349.85
             1635.43,350.89 1635.68,352.71 1635.83,356.56
             1636.03,361.00 1636.15,361.35 1637.92,361.92
             1638.41,362.09 1639.93,362.84 1641.30,363.61
             1642.66,364.35 1644.67,365.42 1645.77,365.94
             1646.86,366.47 1648.42,367.24 1649.24,367.63
             1651.11,368.53 1654.01,369.47 1655.95,369.82
             1658.78,370.32 1663.65,370.74 1665.56,370.64
             1665.56,370.64 1667.48,370.54 1667.48,370.54
             1667.48,370.54 1667.97,368.90 1667.97,368.90
             1669.26,364.60 1669.26,361.67 1667.90,358.32
             1666.78,355.56 1665.91,354.39 1662.41,351.02
             1660.82,349.48 1659.60,348.11 1659.68,347.99
             1659.75,347.86 1660.67,348.18 1661.74,348.73
             1662.78,349.28 1664.94,350.32 1666.51,351.07
             1668.07,351.81 1670.01,352.90 1670.78,353.50
             1671.55,354.10 1673.14,355.24 1674.33,356.06
             1675.50,356.88 1677.34,358.17 1678.38,358.94
             1682.28,361.75 1682.93,362.14 1683.82,362.14
             1684.29,362.14 1684.91,362.02 1685.19,361.87
             1685.88,361.50 1687.40,358.14 1688.49,354.57
             1691.30,345.35 1694.92,333.01 1696.31,327.99
             1696.69,326.62 1697.53,323.92 1698.15,321.98
             1698.77,320.04 1699.34,318.00 1699.44,317.48
             1699.64,316.24 1699.57,316.12 1692.54,306.50
             1691.69,305.34 1690.13,303.10 1689.04,301.54
             1686.65,298.13 1686.06,297.29 1682.78,292.59
             1680.42,289.27 1673.81,279.28 1671.62,275.83
             1671.13,275.01 1669.96,273.19 1669.04,271.80
             1663.78,263.78 1656.94,252.90 1654.04,247.88
             1652.05,244.50 1649.57,239.44 1646.64,232.86
             1642.46,223.42 1641.27,221.38 1631.26,206.40
             1629.02,203.05 1625.45,197.73 1623.31,194.60
             1621.20,191.45 1619.04,188.24 1618.52,187.45
             1618.00,186.68 1617.50,186.03 1617.42,186.03
             1617.35,186.03 1616.98,186.23 1616.63,186.50
             1615.44,187.35 1609.30,190.31 1606.27,191.50
             1600.26,193.88 1596.78,194.80 1584.91,197.09
             1575.52,198.90 1572.12,199.79 1568.76,201.33
             1568.09,201.66 1567.50,201.86 1567.42,201.78
             1567.35,201.71 1567.40,201.58 1567.52,201.48
             1567.87,201.23 1569.11,199.57 1570.38,197.71
             1571.77,195.62 1575.87,191.57 1579.62,188.59
             1582.62,186.21 1584.59,185.04 1593.11,180.69
             1605.80,174.18 1614.12,167.90 1618.72,161.32
             1620.63,158.56 1623.78,153.64 1623.78,153.42
             1623.78,153.32 1624.08,152.62 1624.43,151.83
             1624.80,151.03 1625.37,149.67 1625.70,148.77
             1627.63,143.61 1628.01,142.49 1628.28,141.05
             1628.45,140.18 1628.85,138.52 1629.20,137.35
             1630.17,133.97 1630.19,133.70 1630.61,128.93
             1631.06,123.64 1631.11,119.96 1630.74,119.96
             1630.59,119.96 1630.44,120.11 1630.37,120.26 Z
           M 1612.66,228.01
           C 1613.25,228.14 1615.11,228.46 1616.83,228.73
             1620.63,229.33 1623.58,230.42 1625.08,231.74
             1626.37,232.86 1628.43,236.80 1629.87,240.93
             1630.37,242.37 1630.89,243.86 1631.04,244.28
             1631.41,245.25 1634.29,251.09 1635.11,252.50
             1635.73,253.57 1635.73,254.24 1635.09,253.99
             1634.91,253.94 1633.79,253.25 1632.60,252.48
             1628.73,249.94 1626.89,249.30 1622.79,249.00
             1622.04,248.93 1619.46,248.75 1617.08,248.60
             1612.38,248.28 1610.67,247.83 1608.51,246.37
             1605.97,244.68 1605.20,243.39 1604.14,239.24
             1603.24,235.74 1602.32,233.23 1601.63,232.36
             1601.06,231.61 1599.09,230.67 1596.73,229.97
             1594.92,229.45 1593.98,228.78 1594.57,228.46
             1594.75,228.36 1597.11,228.21 1599.81,228.16
             1602.50,228.11 1604.76,227.99 1604.83,227.91
             1605.08,227.66 1611.51,227.74 1612.66,228.01 Z
           M 1675.35,317.95
           C 1678.63,318.23 1681.06,318.87 1682.11,319.69
             1683.47,320.76 1683.99,323.25 1684.39,330.35
             1684.54,333.16 1684.76,336.11 1684.89,336.91
             1685.01,337.70 1685.06,338.47 1684.99,338.60
             1684.91,338.72 1684.14,338.15 1683.30,337.35
             1682.45,336.53 1680.77,335.22 1679.52,334.42
             1675.30,331.72 1674.73,331.19 1673.96,329.48
             1672.52,326.25 1671.97,324.36 1671.60,321.21
             1671.10,316.94 1671.08,317.14 1671.90,317.46
             1672.27,317.61 1673.83,317.83 1675.35,317.95 Z
           M 1442.08,488.20
           C 1441.96,488.25 1441.54,488.35 1441.16,488.43
             1440.25,488.63 1437.69,491.86 1436.52,494.29
             1435.70,496.00 1435.63,496.33 1435.65,498.26
             1435.68,502.19 1437.46,505.69 1441.02,508.77
             1443.77,511.16 1446.31,513.79 1446.95,514.93
             1446.95,514.93 1447.60,516.07 1447.60,516.07
             1447.60,516.07 1495.51,516.22 1495.51,516.22
             1521.87,516.32 1565.04,516.40 1591.42,516.40
             1591.42,516.40 1639.43,516.40 1639.43,516.40
             1639.43,516.40 1640.35,514.96 1640.35,514.96
             1640.85,514.19 1642.54,512.25 1644.05,510.66
             1647.73,506.88 1649.86,503.58 1649.86,501.74
             1649.86,501.52 1649.99,501.22 1650.16,501.05
             1650.51,500.70 1650.56,497.20 1650.21,496.75
             1650.06,496.55 1649.82,495.90 1649.64,495.28
             1648.87,492.65 1647.06,489.82 1645.44,488.80
             1645.44,488.80 1644.30,488.08 1644.30,488.08
             1644.30,488.08 1543.33,488.10 1543.33,488.10
             1487.76,488.10 1442.23,488.15 1442.08,488.20 Z
           M 1434.71,532.84
           C 1433.81,534.23 1431.92,537.29 1430.53,539.60
             1425.39,548.09 1421.64,553.73 1417.62,559.00
             1416.57,560.36 1414.64,562.97 1413.32,564.78
             1410.59,568.53 1408.30,571.34 1405.22,574.77
             1398.56,582.15 1397.75,583.19 1396.63,586.02
             1394.54,591.26 1395.56,597.52 1399.01,600.70
             1400.78,602.34 1402.37,603.26 1404.45,603.78
             1405.94,604.18 1415.46,604.20 1540.82,604.20
             1667.80,604.20 1675.67,604.18 1677.24,603.78
             1680.67,602.89 1683.65,600.50 1684.94,597.62
             1685.91,595.51 1686.38,592.33 1686.08,590.17
             1685.43,585.70 1683.94,582.99 1679.50,578.07
             1673.69,571.71 1671.03,568.53 1668.52,564.96
             1667.65,563.72 1666.09,561.60 1665.02,560.24
             1658.21,551.37 1651.70,541.14 1649.12,535.25
             1648.47,533.78 1647.68,532.12 1647.36,531.52
             1647.36,531.52 1646.76,530.46 1646.76,530.46
             1646.76,530.46 1607.27,530.55 1607.27,530.55
             1559.18,530.70 1454.98,530.60 1444.19,530.41
             1444.19,530.41 1436.37,530.26 1436.37,530.26
             1436.37,530.26 1434.71,532.84 1434.71,532.84 Z
           M 1676.32,587.29
           C 1677.91,587.96 1678.18,588.78 1678.18,593.03
             1678.18,596.28 1678.11,596.85 1677.71,597.47
             1677.44,597.87 1676.96,598.34 1676.64,598.52
             1676.17,598.79 1650.44,598.84 1541.32,598.86
             1454.50,598.86 1406.27,598.79 1405.72,598.61
             1405.25,598.49 1404.55,598.02 1404.18,597.57
             1403.48,596.75 1403.48,596.73 1403.46,593.08
             1403.46,589.72 1403.51,589.30 1403.98,588.65
             1404.55,587.86 1405.20,587.44 1406.31,587.16
             1406.74,587.06 1467.44,586.99 1541.27,586.97
             1657.54,586.94 1675.57,586.99 1676.32,587.29 Z
           M 300.72,380.00
           C 300.72,380.00 322.98,380.00 322.98,380.00
             322.98,380.00 344.45,458.75 344.45,458.75
             344.45,458.75 315.30,467.23 315.30,467.23
             305.58,448.43 296.43,435.09 287.86,427.22
             275.95,416.41 263.05,411.00 249.16,411.00
             239.02,411.00 229.54,413.84 220.70,419.52
             211.87,425.18 204.86,433.53 199.69,444.56
             194.52,455.59 191.94,468.50 191.94,483.30
             191.94,505.88 197.86,525.31 209.72,541.59
             221.58,557.87 237.13,566.00 256.36,566.00
             268.59,566.00 280.34,562.48 291.62,555.44
             305.73,546.73 317.90,535.02 328.14,520.31
             328.14,520.31 352.44,538.36 352.44,538.36
             336.66,559.90 322.23,574.91 309.17,583.39
             289.00,596.46 266.54,603.00 241.78,603.00
             221.20,603.00 202.57,598.05 185.91,588.14
             169.24,578.23 155.94,564.36 146.02,546.53
             136.09,528.70 131.12,509.24 131.12,488.16
             131.12,467.19 135.96,448.08 145.62,430.83
             155.29,413.57 168.46,400.12 185.12,390.47
             201.79,380.82 220.36,376.00 240.84,376.00
             261.63,376.00 279.87,380.46 295.55,389.39
             295.55,389.39 300.72,380.00 300.72,380.00 Z
           M 383.44,380.00
           C 383.44,380.00 490.19,380.00 490.19,380.00
             490.19,380.00 490.19,410.00 490.19,410.00
             490.19,410.00 480.31,410.00 480.31,410.00
             474.88,410.00 471.16,410.55 469.17,411.66
             467.19,412.76 465.78,414.34 464.94,416.39
             464.10,418.43 463.69,422.87 463.69,429.70
             463.69,429.70 463.69,468.00 463.69,468.00
             463.69,468.00 543.31,468.00 543.31,468.00
             543.31,468.00 543.31,426.86 543.31,426.86
             543.31,421.82 543.00,418.41 542.38,416.62
             541.54,414.11 540.13,412.37 538.14,411.42
             536.15,410.48 531.77,410.00 524.98,410.00
             524.98,410.00 516.67,410.00 516.67,410.00
             516.67,410.00 516.67,380.00 516.67,380.00
             516.67,380.00 623.72,380.00 623.72,380.00
             623.72,380.00 623.72,410.00 623.72,410.00
             623.72,410.00 614.78,410.00 614.78,410.00
             608.73,410.00 604.71,410.50 602.72,411.50
             600.73,412.50 599.34,413.98 598.56,415.92
             597.78,417.86 597.39,422.45 597.39,429.70
             597.39,429.70 597.39,548.83 597.39,548.83
             597.39,556.18 597.88,560.94 598.88,563.09
             599.88,565.25 601.39,566.78 603.42,567.67
             605.46,568.56 610.14,569.00 617.45,569.00
             617.45,569.00 623.72,569.00 623.72,569.00
             623.72,569.00 623.72,599.00 623.72,599.00
             623.72,599.00 516.67,599.00 516.67,599.00
             516.67,599.00 516.67,569.00 516.67,569.00
             516.67,569.00 523.72,569.00 523.72,569.00
             530.30,569.00 534.77,568.48 537.12,567.42
             539.48,566.36 541.10,564.83 541.98,562.83
             542.87,560.82 543.31,556.12 543.31,548.72
             543.31,548.72 543.31,502.00 543.31,502.00
             543.31,502.00 463.69,502.00 463.69,502.00
             463.69,502.00 463.69,548.72 463.69,548.72
             463.69,556.12 464.00,560.71 464.62,562.50
             465.68,565.15 467.30,566.89 469.48,567.73
             471.68,568.58 476.12,569.00 482.81,569.00
             482.81,569.00 490.19,569.00 490.19,569.00
             490.19,569.00 490.19,599.00 490.19,599.00
             490.19,599.00 383.44,599.00 383.44,599.00
             383.44,599.00 383.44,569.00 383.44,569.00
             383.44,569.00 390.66,569.00 390.66,569.00
             396.72,569.00 400.95,568.48 403.34,567.42
             405.75,566.37 407.39,564.90 408.28,563.02
             409.18,561.12 409.62,556.97 409.62,550.56
             409.62,550.56 409.62,431.11 409.62,431.11
             409.62,423.65 409.18,418.80 408.28,416.55
             407.39,414.29 406.01,412.63 404.12,411.58
             402.25,410.53 398.59,410.00 393.16,410.00
             393.16,410.00 383.44,410.00 383.44,410.00
             383.44,410.00 383.44,380.00 383.44,380.00 Z
           M 662.22,380.00
           C 662.22,380.00 844.67,380.00 844.67,380.00
             844.67,380.00 869.59,449.58 869.59,449.58
             869.59,449.58 841.22,459.83 841.22,459.83
             836.41,448.42 830.80,439.23 824.38,432.27
             817.95,425.30 810.84,420.68 803.05,418.41
             795.27,416.14 786.20,415.00 775.86,415.00
             775.86,415.00 742.47,415.00 742.47,415.00
             742.47,415.00 742.47,470.00 742.47,470.00
             742.47,470.00 753.44,470.00 753.44,470.00
             761.70,470.00 767.27,469.40 770.14,468.20
             773.02,467.01 775.08,465.13 776.33,462.58
             777.59,460.02 778.22,454.92 778.22,447.30
             778.22,447.30 778.22,439.00 778.22,439.00
             778.22,439.00 806.11,439.00 806.11,439.00
             806.11,439.00 806.11,531.00 806.11,531.00
             806.11,531.00 778.22,531.00 778.22,531.00
             778.22,531.00 778.22,521.56 778.22,521.56
             778.22,515.16 777.46,510.48 775.94,507.55
             774.43,504.61 772.36,502.62 769.75,501.58
             767.13,500.53 761.33,500.00 752.34,500.00
             752.34,500.00 742.47,500.00 742.47,500.00
             742.47,500.00 742.47,550.56 742.47,550.56
             742.47,555.94 742.73,559.21 743.25,560.38
             743.77,561.53 744.79,562.43 746.30,563.06
             747.82,563.69 751.09,564.00 756.11,564.00
             756.11,564.00 774.44,564.00 774.44,564.00
             788.13,564.00 799.68,562.03 809.08,558.09
             818.48,554.16 826.87,547.81 834.23,539.05
             841.61,530.28 847.28,519.86 851.25,507.78
             851.25,507.78 879.94,517.67 879.94,517.67
             879.94,517.67 851.25,599.00 851.25,599.00
             851.25,599.00 662.22,599.00 662.22,599.00
             662.22,599.00 662.22,569.00 662.22,569.00
             662.22,569.00 667.70,569.00 667.70,569.00
             675.02,569.00 679.94,568.48 682.44,567.42
             684.95,566.37 686.73,564.53 687.78,561.91
             688.30,560.34 688.56,555.87 688.56,548.52
             688.56,548.52 688.56,428.75 688.56,428.75
             688.56,422.24 688.11,417.99 687.22,416.00
             686.33,414.00 684.95,412.50 683.06,411.50
             681.19,410.50 677.48,410.00 671.94,410.00
             671.94,410.00 662.22,410.00 662.22,410.00
             662.22,410.00 662.22,380.00 662.22,380.00 Z
           M 1072.95,380.00
           C 1072.95,380.00 1091.77,453.66 1091.77,453.66
             1091.77,453.66 1062.61,462.00 1062.61,462.00
             1052.89,444.37 1041.86,431.46 1029.53,423.28
             1017.21,415.09 1004.10,411.00 990.20,411.00
             981.21,411.00 974.13,412.84 968.95,416.52
             963.79,420.20 961.20,424.29 961.20,428.81
             961.20,433.97 963.55,438.75 968.25,443.16
             972.85,447.57 981.32,451.52 993.64,454.98
             993.64,454.98 1035.66,467.28 1035.66,467.28
             1058.96,473.99 1075.57,482.90 1085.50,494.02
             1095.32,505.23 1100.23,518.29 1100.23,533.17
             1100.23,552.15 1092.71,568.20 1077.66,581.30
             1060.83,595.77 1039.94,603.00 1014.97,603.00
             1003.36,603.00 992.70,601.47 982.98,598.42
             973.27,595.36 963.13,590.33 952.58,583.33
             952.58,583.33 945.69,599.00 945.69,599.00
             945.69,599.00 922.33,599.00 922.33,599.00
             922.33,599.00 906.81,514.06 906.81,514.06
             906.81,514.06 936.12,507.00 936.12,507.00
             943.02,524.39 953.75,538.90 968.33,550.55
             982.91,562.18 998.93,568.00 1016.38,568.00
             1024.21,568.00 1030.71,567.01 1035.88,565.02
             1041.05,563.02 1044.95,560.23 1047.56,556.66
             1050.18,553.09 1051.48,549.41 1051.48,545.62
             1051.48,539.32 1048.45,533.92 1042.39,529.41
             1036.22,524.89 1025.46,520.42 1010.11,516.02
             1010.11,516.02 973.58,505.33 973.58,505.33
             968.04,503.76 960.54,500.79 951.08,496.44
             941.63,492.07 934.37,487.53 929.30,482.81
             924.23,478.09 920.03,472.02 916.69,464.61
             913.34,457.20 911.67,449.41 911.67,441.22
             911.67,429.56 914.88,418.82 921.31,409.00
             927.74,399.18 937.41,391.23 950.31,385.14
             963.22,379.05 977.50,376.00 993.17,376.00
             1012.09,376.00 1029.17,381.00 1044.42,390.98
             1044.42,390.98 1050.55,380.00 1050.55,380.00
             1050.55,380.00 1072.95,380.00 1072.95,380.00 Z
           M 1299.95,380.00
           C 1299.95,380.00 1318.77,453.66 1318.77,453.66
             1318.77,453.66 1289.61,462.00 1289.61,462.00
             1279.89,444.37 1268.86,431.46 1256.53,423.28
             1244.21,415.09 1231.10,411.00 1217.20,411.00
             1208.21,411.00 1201.13,412.84 1195.95,416.52
             1190.79,420.20 1188.20,424.29 1188.20,428.81
             1188.20,433.97 1190.55,438.75 1195.25,443.16
             1199.85,447.57 1208.32,451.52 1220.64,454.98
             1220.64,454.98 1262.66,467.28 1262.66,467.28
             1285.96,473.99 1302.57,482.90 1312.50,494.02
             1322.32,505.23 1327.23,518.29 1327.23,533.17
             1327.23,552.15 1319.71,568.20 1304.66,581.30
             1287.83,595.77 1266.94,603.00 1241.97,603.00
             1230.36,603.00 1219.70,601.47 1209.98,598.42
             1200.27,595.36 1190.13,590.33 1179.58,583.33
             1179.58,583.33 1172.69,599.00 1172.69,599.00
             1172.69,599.00 1149.33,599.00 1149.33,599.00
             1149.33,599.00 1133.81,514.06 1133.81,514.06
             1133.81,514.06 1163.12,507.00 1163.12,507.00
             1170.02,524.39 1180.75,538.90 1195.33,550.55
             1209.91,562.18 1225.93,568.00 1243.38,568.00
             1251.21,568.00 1257.71,567.01 1262.88,565.02
             1268.05,563.02 1271.95,560.23 1274.56,556.66
             1277.18,553.09 1278.48,549.41 1278.48,545.62
             1278.48,539.32 1275.45,533.92 1269.39,529.41
             1263.22,524.89 1252.46,520.42 1237.11,516.02
             1237.11,516.02 1200.58,505.33 1200.58,505.33
             1195.04,503.76 1187.54,500.79 1178.08,496.44
             1168.63,492.07 1161.37,487.53 1156.30,482.81
             1151.23,478.09 1147.03,472.02 1143.69,464.61
             1140.34,457.20 1138.67,449.41 1138.67,441.22
             1138.67,429.56 1141.88,418.82 1148.31,409.00
             1154.74,399.18 1164.41,391.23 1177.31,385.14
             1190.22,379.05 1204.50,376.00 1220.17,376.00
             1239.09,376.00 1256.17,381.00 1271.42,390.98
             1271.42,390.98 1277.55,380.00 1277.55,380.00
             1277.55,380.00 1299.95,380.00 1299.95,380.00 Z
           M 272.19,72.48
           C 181.42,59.64 145.46,184.13 142.90,195.28
             121.79,279.01 128.19,350.77 194.44,365.17
             329.08,393.97 402.52,95.17 272.19,72.48 Z
           M 305.31,169.69
           C 303.16,210.38 277.59,338.53 227.55,338.53
             172.99,337.30 165.68,245.68 214.02,143.38
             230.77,110.49 259.87,90.27 274.72,93.00
             299.19,97.33 307.47,129.00 305.31,169.69 Z
           M 417.31,172.56
           C 325.88,172.56 292.75,337.81 384.55,337.81
             439.62,337.81 457.62,278.41 457.62,278.41
             457.62,278.41 455.47,278.05 452.23,276.97
             443.95,298.20 400.03,315.84 380.23,287.41
             364.03,264.00 387.08,189.12 416.95,189.12
             434.95,189.12 422.00,222.61 411.91,228.38
             411.91,231.97 418.39,236.64 425.59,236.64
             441.80,236.64 454.39,223.33 454.39,206.05
             454.39,185.89 438.19,172.56 417.31,172.56 Z
           M 535.11,174.38
           C 443.67,174.38 410.55,336.73 502.00,336.73
             557.44,336.73 575.08,278.05 575.08,278.05
             575.08,278.05 572.91,277.33 569.67,276.61
             565.00,290.64 522.88,319.09 498.03,286.33
             480.75,263.64 501.62,196.33 531.16,196.33
             549.52,196.33 526.47,251.05 490.11,255.73
             490.11,261.48 494.80,268.33 504.52,269.05
             540.16,271.92 569.31,240.25 569.31,208.20
             569.31,188.41 551.31,174.38 535.11,174.38 Z
           M 719.72,276.61
           C 716.11,286.69 708.91,300.00 701.00,300.38
             690.19,300.73 689.83,285.25 697.39,259.33
             703.88,236.64 711.08,215.77 721.52,183.00
             721.52,183.00 676.16,183.00 676.16,183.00
             675.08,186.61 673.62,190.56 672.19,195.25
             668.59,184.45 658.88,174.00 635.47,174.00
             579.67,174.00 528.91,336.00 603.08,336.00
             621.08,336.00 635.83,318.00 647.00,297.84
             647.00,317.28 653.47,336.00 678.31,336.00
             703.16,336.00 720.44,299.28 726.55,278.77
             726.55,278.77 719.72,276.61 719.72,276.61 Z
           M 624.31,299.28
           C 604.88,299.28 638.72,191.64 656.36,191.64
             671.47,191.64 663.55,223.69 663.55,223.69
             663.55,223.69 661.39,231.61 660.31,235.56
             660.31,235.56 640.88,299.28 624.31,299.28 Z
           M 869.91,278.05
           C 864.88,292.81 858.39,301.81 851.91,301.81
             840.03,301.81 838.59,291.73 842.19,279.12
             845.44,266.89 860.19,219.73 860.19,219.73
             868.47,195.25 859.83,174.00 832.11,174.00
             814.11,174.00 797.91,192.73 787.83,207.48
             787.83,207.48 795.03,184.45 795.03,184.45
             795.03,184.45 748.95,184.45 748.95,184.45
             748.95,184.45 701.08,336.00 701.08,336.00
             701.08,336.00 746.80,336.00 746.80,336.00
             746.80,336.00 776.31,243.48 776.31,243.48
             781.00,228.00 798.62,203.89 806.55,203.89
             810.16,203.89 813.75,208.20 811.23,218.28
             810.16,222.97 802.59,249.25 793.95,277.33
             789.27,293.17 774.88,342.48 819.88,342.48
             846.88,342.48 870.62,300.73 876.75,280.20
             876.75,280.20 869.91,278.05 869.91,278.05 Z
           M 956.62,174.38
           C 948.00,159.61 908.75,159.97 902.62,189.84
             901.55,194.53 901.55,199.56 902.62,205.33
             893.27,227.28 883.91,246.73 873.83,264.38
             865.19,268.69 857.62,280.56 854.75,295.69
             849.36,316.20 863.75,341.77 885.36,347.17
             934.31,359.41 966.36,332.77 971.03,292.45
             975.72,251.41 946.91,213.97 956.62,174.38 Z
           M 921.00,290.28
           C 919.55,305.77 907.31,325.56 890.75,319.45
             873.11,312.97 881.75,274.81 890.75,265.09
             889.31,264.00 887.52,263.28 886.08,262.92
             894.00,247.81 900.83,234.12 906.23,221.17
             912.36,242.41 922.80,267.61 921.00,290.28 Z
           M 1011.31,183.00
           C 1005.91,199.20 996.19,229.45 987.55,257.53
             976.39,291.73 972.80,336.00 1013.47,336.00
             1038.31,336.00 1055.59,299.28 1061.72,278.77
             1061.72,278.77 1054.88,276.61 1054.88,276.61
             1052.00,286.33 1044.08,300.00 1036.16,300.38
             1025.36,300.73 1025.00,285.25 1032.55,259.33
             1039.03,236.64 1046.23,215.77 1056.67,183.00
             1056.67,183.00 1011.31,183.00 1011.31,183.00 Z
           M 1067.47,144.48
           C 1067.47,130.81 1056.31,119.64 1042.62,119.64
             1028.95,119.64 1017.80,130.81 1017.80,144.48
             1017.80,158.17 1028.95,169.33 1042.62,169.33
             1056.31,169.33 1067.47,158.17 1067.47,144.48 Z
           M 1187.62,300.38
           C 1176.83,300.73 1176.47,285.25 1184.03,259.69
             1190.88,237.00 1218.23,152.41 1228.67,119.64
             1228.67,119.64 1183.31,119.64 1183.31,119.64
             1180.44,129.00 1169.62,163.20 1159.55,196.33
             1155.95,185.17 1146.23,174.38 1122.47,174.38
             1066.67,174.38 1015.91,336.00 1090.08,336.00
             1108.08,336.00 1122.83,318.38 1134.00,297.84
             1134.00,317.28 1140.47,336.00 1164.95,336.00
             1189.80,336.00 1207.44,299.64 1213.55,279.12
             1213.55,279.12 1206.36,276.61 1206.36,276.61
             1203.47,286.33 1195.91,300.00 1187.62,300.38 Z
           M 1110.95,299.64
           C 1091.88,299.64 1125.72,192.00 1143.36,192.00
             1158.47,192.00 1150.91,224.41 1150.91,224.41
             1149.47,228.38 1148.39,232.33 1147.31,235.92
             1147.31,235.92 1127.88,299.64 1110.95,299.64 Z
           M 1292.11,174.38
           C 1200.67,174.38 1167.55,336.73 1259.00,336.73
             1314.44,336.73 1332.08,278.05 1332.08,278.05
             1332.08,278.05 1329.91,277.33 1326.67,276.61
             1322.00,290.64 1279.88,319.09 1255.03,286.33
             1237.75,263.64 1258.62,196.33 1288.16,196.33
             1306.52,196.33 1283.47,251.05 1247.11,255.73
             1247.11,261.48 1251.80,268.33 1261.52,269.05
             1297.16,271.92 1326.31,240.25 1326.31,208.20
             1326.31,188.41 1308.31,174.38 1292.11,174.38 Z" />
</svg>
